<!DOCTYPE svg PUBLIC "-//W3C//DTD SVG 1.1//EN" "http://www.w3.org/Graphics/SVG/1.1/DTD/svg11.dtd">
<svg xmlns="http://www.w3.org/2000/svg" viewBox="0 0 640 640">
<path fill="#fbbc6b" stroke="#fbbc6b" d="M261.087 24.5c-.041 1.1.598 3.289 1.419 4.864.822 1.576 1.494 3.462 1.494 4.191 0 .73.337 1.535.75 1.79 1.241.766 1.163-4.737-.088-6.241-.639-.767-1.688-2.567-2.331-4-.99-2.205-1.18-2.298-1.244-.604M272 41c0 1.1.788 2.794 1.75 3.764.962.97 2.314 3.02 3.004 4.556 1.321 2.94 3.573 2.851 2.582-.102C276.556 40.938 272 35.834 272 41m54.25 5.708c-.687.252-1.25 1.351-1.25 2.441 0 2.687-1.792 5.851-3.312 5.851-.684 0-2.457 1.384-3.941 3.075-1.924 2.193-3.255 2.898-4.639 2.459-1.067-.338-2.234-.14-2.593.442-.939 1.519-2.515.244-2.515-2.035 0-1.068-.45-1.941-1-1.941s-1 1.063-1 2.362c0 5.981-23.286 3.548-24.18-2.527-.453-3.086-3.049-3.733-2.796-.697.109 1.299.148 2.824.087 3.389-.19 1.76-5.92 7.473-7.496 7.473-.823 0-1.789.472-2.145 1.049-.443.716-1.094.678-2.059-.123-1.146-.951-1.411-.735-1.411 1.147 0 2.383-4.521 7.927-6.465 7.927-1.577 0-4.53 3.726-4.566 5.761-.049 2.704-4.659 9.57-6.667 9.928-8.827 1.576-18.526-2.195-18.028-7.01.142-1.37-.331-2.179-1.274-2.179-1.054 0-1.485 1.03-1.451 3.464.045 3.146.582 3.774 5.863 6.86 5.738 3.353 5.805 3.445 5.143 7.036-1.555 8.437-1.731 13.14-.492 13.14.676 0 .023 1.118-1.451 2.484-2.611 2.419-2.636 2.55-.967 5.098 1.36 2.075 1.475 2.997.555 4.47-.638 1.02-.766 2.098-.287 2.395.956.59.689 9.081-.368 11.674-.409 1.005-.073 1.846.886 2.214 1.181.453 1.444 1.686 1.114 5.212-.238 2.539-.025 5.691.474 7.004.733 1.927.491 2.679-1.256 3.903-2.16 1.513-2.159 1.517.786 2.11 1.849.372 4.047 2.055 5.886 4.506 1.615 2.152 3.752 4.172 4.75 4.489 1.912.606 2.524 2.441.815 2.441-.55 0-1 .45-1 1s.873 1 1.941 1c2.521 0 3.646 1.837 1.605 2.621-.87.334-1.461 1.343-1.314 2.243.172 1.047-.451 1.653-1.732 1.682-1.1.025-3.125.551-4.5 1.169-1.375.617-3.287 1.37-4.25 1.672-2.036.64-2.384 3.613-.423 3.613.906 0 1.187.954.884 3.013-.36 2.457-.144 2.899 1.174 2.393.888-.341 1.615-.122 1.615.487s-.787 1.119-1.75 1.135c-.963.015-3.031 1.334-4.598 2.931-1.566 1.597-3.479 2.661-4.25 2.365-.844-.324-1.402.101-1.402 1.069 0 .884-.675 1.607-1.5 1.607-1.573 0-1.982 1.185-.813 2.354 2.209 2.209-.329 8.646-3.409 8.646-.703 0-1.278.45-1.278 1s-.675 1-1.5 1c-2.138 0-1.835 1.15 1.017 3.855 1.366 1.295 2.483 3.419 2.483 4.719 0 1.69.427 2.199 1.5 1.788.825-.317 1.5-.078 1.5.531s-.675 1.107-1.5 1.107-1.5.45-1.5 1-.97 1-2.155 1c-2.085 0-2.097.064-.362 1.981 1.945 2.15.742 5.019-2.105 5.019-.758 0-1.378.653-1.378 1.452 0 .798-1.575 2.981-3.5 4.851-3.723 3.616-4.454 5.697-2 5.697.825 0 1.5-.604 1.5-1.343 0-3.31 7.391-.332 9.579 3.86 1.591 3.049 2.587 3.91 4.25 3.67 1.464-.211 2.171.215 2.171 1.309 0 .892-.416 1.365-.925 1.05-1.136-.701-6.075 1.444-6.075 2.639 0 .476 1.152 1.303 2.56 1.838 1.408.535 2.313 1.373 2.011 1.862-.302.489.087 1.416.864 2.061s2.8 4.048 4.495 7.562c2.935 6.087 4.376 7.473 10.82 10.415 2.629 1.201 2.737 1.931.848 5.746-4.955 10.01-4.981 12.843-.098 10.969.825-.316 1.5-.139 1.5.393 0 .533-.45.969-1 .969s-1 .45-1 1c0 1.461 2.973 1.225 3.152-.25.802-6.582 1.663-7.753 5.665-7.714 4.024.039 7.953 2.775 10.003 6.964.672 1.375 2.338 4.029 3.701 5.898 2.084 2.856 3.486 9.102 2.044 9.102-2.727 0-5.48-2.347-6.088-5.19-.755-3.53-2.167-5.81-3.599-5.81-1.574 0-.924 2.954 1.093 4.971 1.231 1.231 1.927 3.2 1.856 5.25-.063 1.803.211 4.742.609 6.529.585 2.629.413 3.25-.9 3.25-.893 0-1.551.563-1.461 1.25.423 3.262-.038 3.84-2.161 2.704-2.72-1.456-3.962-.193-1.547 1.573 1.809 1.322 1.801 1.444-.251 4.053-1.164 1.479-2.116 3.27-2.116 3.978 0 4.596-9.414 10.804-14.928 9.844l-3.572-.622 3.25 3.054c4.173 3.921 5.053 13.212 1.507 15.916-.983.749-1.152 1.25-.423 1.25 1.747 0 3.355 4.702 3.599 10.531.134 3.177.885 5.818 2.039 7.165 4.041 4.72 4.946 15.304 1.309 15.304-.43 0-.781.79-.781 1.755 0 1.127-1.342 2.228-3.75 3.075-5.858 2.06-9.25 2.531-9.25 1.283 0-.612-.675-1.113-1.5-1.113-2.083 0-1.887 2.92.25 3.708.962.356 2.053 1.1 2.424 1.655.618.925 5.651-.658 11.111-3.496 2.297-1.194 3.555-.413 8.782 5.452 2.881 3.233 4.876 4.668 6.059 4.358 1.368-.358 1.832.243 2.069 2.681.252 2.593.786 3.197 3.055 3.458 1.513.175 3.216 1.187 3.786 2.25.569 1.064 1.87 1.934 2.892 1.934 1.022 0 2.117.675 2.434 1.5.346.903.005 1.5-.858 1.5-.789 0-1.888.848-2.442 1.885-.555 1.037-2.172 2.177-3.592 2.533-2.009.504-2.445 1.086-1.959 2.615.424 1.337.161 1.967-.823 1.967-.796 0-3.369 1.866-5.719 4.146-3.636 3.528-4.547 3.974-6.121 2.991-1.56-.974-1.848-.85-1.848.796 0 1.072.476 2.243 1.059 2.603 1.152.713.331 6.191-1.218 8.118-.51.635-.638 2.307-.285 3.715.838 3.335-1.513 8.631-3.831 8.631-2.261 0-3.463 2.926-1.66 4.04 1.11.686 1.046 1.18-.357 2.73-.942 1.041-1.453 2.151-1.136 2.468.316.317-.151 1.981-1.039 3.698-1.789 3.46-1.345 5.064 1.404 5.064 1 0 2.412.716 3.138 1.59 1.2 1.446 1.438 1.429 2.622-.191 1.144-1.564 1.303-1.582 1.303-.149 0 .898-.396 1.876-.879 2.175-.483.299-.65 2.576-.37 5.059.291 2.582.096 4.516-.454 4.516-.53 0-.964 1.369-.964 3.041 0 2.243.416 2.957 1.584 2.721 2.967-.6 5.181 3.653 4.694 9.017l-.445 4.893 3.667-.176c2.046-.098 4.441.485 5.417 1.319 1.127.963 1.75 1.084 1.75.34 0-.635.402-1.155.894-1.155s.83 1.125.75 2.499c-.079 1.375-.481 2.5-.894 2.5-.413.001-.75.599-.75 1.33 0 .736 1.005 1.294 2.25 1.25 1.85-.065 2.251.454 2.254 2.921.002 1.65.353 3.542.78 4.204.428.662.502 2.301.166 3.641-.337 1.34-.168 2.711.375 3.047.543.335.736 1.57.429 2.743-.401 1.537-.166 2.001.844 1.663.771-.259 1.415-1.106 1.431-1.884.093-4.57 7.048-7.444 11.415-4.717 1.623 1.013 2.229.822 3.953-1.25 2.472-2.971 2.838-.879.597 3.417-.822 1.576-1.494 3.038-1.494 3.25 0 .892 3.693.293 4.758-.772.876-.876 1.528-.849 2.687.112.841.698 2.199 1.013 3.018.699.818-.314 3.127.113 5.129.95 2.003.837 4.209 1.304 4.903 1.037.694-.266 1.757.012 2.363.618.773.773 1.778.795 3.372.071 6.856-3.111 10.77-3.596 10.77-1.335 0 2.482 5.075 11.263 6.515 11.274.542.004 1.541-1.067 2.22-2.38l1.236-2.388.014 2.25c.009 1.37.628 2.25 1.582 2.25 1.983 0 1.062-3.371-1.666-6.099-2.549-2.549-2.327-3.978 1.032-6.626 2.917-2.299 5.221-2.623 13.296-1.866 8.023.751 13.771 3.784 13.771 7.265 0 1.762 1.459 1.683 2.991-.163.99-1.193.904-2.316-.433-5.657-1.764-4.409-1.78-4.369 2.799-6.98 1.318-.751 2.175-.742 2.95.033 1.307 1.307 5.693 1.467 5.693.208 0-.487-1.138-1.631-2.529-2.542-2.439-1.598-3.048-5.329-1.175-7.202.387-.387.704-1.67.704-2.85 0-3.037 5.451-6.876 8.632-6.077 2.185.548 2.355.4 1.461-1.271-.933-1.742-.519-19.081.48-20.079.229-.229 1.98-.481 3.892-.559 4.479-.183 5.15-.948 3.302-3.768-2.117-3.231-3.059-8.267-1.951-10.433 4.302-8.408 3.746-15.348-1.389-17.363-4.466-1.752-6.755-7.415-3.425-8.472.997-.316 2.039-1.163 2.315-1.882.305-.795 1.808-1.204 3.842-1.044 4.372.344 6.841-.39 6.841-2.033 0-1.707-2.918-2.837-4.377-1.695-1.85 1.448-6.432 2.227-6.79 1.154-.183-.549-2.358-1.142-4.833-1.319-3.416-.244-4.436-.697-4.234-1.88.154-.9-.668-1.803-1.944-2.136-2.162-.566-2.169-.623-.355-2.627 2.306-2.549 1.461-3.604-1.584-1.975-1.818.974-2.374.966-2.708-.036-.231-.693-2.114-2.895-4.184-4.893-4.009-3.869-6.392-7.676-5.603-8.951.264-.428.091-1.407-.384-2.176-1.305-2.111.785-5.294 3.082-4.694 2.172.568 2.484-.342.721-2.105-.925-.925-.587-1.827 1.5-4.005 1.481-1.546 2.693-3.365 2.693-4.042 0-.677.714-2.32 1.586-3.651.873-1.332 1.296-2.891.941-3.465-.369-.598.248-1.044 1.445-1.044 1.15 0 2.35-.675 2.666-1.5.317-.825 1.598-1.5 2.847-1.5 1.248 0 2.818-.661 3.488-1.468.671-.807 1.513-1.37 1.873-1.25.36.12.767-.119.904-.532.557-1.67.177-1.934-1.172-.815-1.593 1.322-5.273-.207-7.062-2.935-1.339-2.043-1.602-5.829-.454-6.538 1.726-1.067.965-2.257-2.137-3.338-4.215-1.47-2.827-3.055 2.095-2.394 3.43.46 3.928.299 3.393-1.096-.345-.899-.99-1.634-1.435-1.634-.7 0-1.913-9.15-2.352-17.739-.077-1.519-1.6-4.921-3.383-7.561-3.305-4.892-3.94-6.7-2.355-6.7 1.538 0 10.178-9.085 9.572-10.065-.931-1.505-5.647-1.075-7.602.693-3.985 3.606-12.818-4.828-11.619-11.096.271-1.419.103-2.821-.373-3.115-2.015-1.245-.913-10.207 1.626-13.226 3.594-4.27.124-5.131-4.562-1.131-4.746 4.05-8.497 1.758-9.12-5.573l-.338-3.987-1.685 3.75c-1.65 3.672-1.799 3.75-7.165 3.75-11.698 0-11.775-8.449-.122-13.478 7.046-3.041 7.969-3.603 9.642-5.878 1.4-1.904 1.46-2.761.409-5.818-2.83-8.231 4.292-11.35 10.75-4.707 2.859 2.941 5.112 3.64 6.177 1.917.328-.53-1.221-2.111-3.441-3.513-2.332-1.472-4.037-3.326-4.037-4.39 0-1.012-1.178-3.112-2.617-4.665-2.394-2.582-2.474-2.928-.94-4.05 1.071-.783 1.294-1.463.617-1.881-1.723-1.065-1.212-2.537.881-2.537 2.707 0 3.685-2.024 1.282-2.652-1.79-.468-1.93-1.153-1.468-7.183.687-8.95 4.067-15.217 8.454-15.672 3.609-.375 3.791-.441 3.791-1.385 0-.49-1.238-1.2-2.75-1.578-3.274-.817-6.25-3.301-6.25-5.216 0-.757-.562-1.594-1.25-1.859-1.469-.566-2.117-6.455-.71-6.455.528 0 .96-.45.96-1s-.847-1-1.881-1c-1.848 0-7.368-6.143-6.922-7.704.349-1.223-2.54-5.296-3.758-5.296-.593 0-2.882-1.544-5.086-3.43-4.02-3.441-5.037-7.036-2.947-10.418.437-.707.565-1.515.284-1.796-.847-.847 5.582-6.526 9.06-8.003 1.788-.759 3.25-2.049 3.25-2.866 0-.818.45-1.487 1-1.487s1-1.07 1-2.378c0-1.307.681-2.942 1.513-3.633.832-.691 1.454-1.758 1.382-2.372-.385-3.263.137-3.825 2.855-3.071 1.512.419 4.1.844 5.75.945 1.65.1 4.012.511 5.25.913 1.804.586 2.25.351 2.25-1.182 0-2.252-2.674-4.866-5.5-5.377-4.552-.823-2.385-11.909 3.021-15.451 1.363-.893 2.479-2.211 2.479-2.927 0-2.199 6.441-5.467 10.774-5.467 3.554 0 3.976-.242 3.513-2.011-.49-1.872-1.698-2.444-6.776-3.212-3.843-.58-3.156-7.559.962-9.763 3.75-2.007 3.064-3.124-1.473-2.398-2.385.381-4 .243-4-.342 0-.54-1.161-2.234-2.579-3.765-3.513-3.791-4.075-9.822-1.167-12.531L374.377 97h-2.304c-1.355 0-3.623-1.441-5.509-3.5-1.763-1.925-3.629-3.5-4.145-3.5-1.083 0-6.419-4.76-6.419-5.726 0-.355.957-1.664 2.127-2.909 2.594-2.761 1.842-5.365-1.549-5.365-5.032 0-7.661-2.217-12.048-10.165-2.151-3.895-6.769-5.29-10.948-3.307-5.783 2.744-9.032 1.232-9.243-4.302-.089-2.324.151-4.226.534-4.226s1.517-1.391 2.521-3.09c1.81-3.064 1.26-5.083-1.144-4.202m66.208 39.36c-.363.588-1.275.832-2.027.544-1.661-.638-3.004 1.215-1.773 2.446.511.511 2.138-.143 3.863-1.552 1.638-1.339 2.443-2.45 1.788-2.47-.655-.02-1.488.445-1.851 1.032M230 142.31c0 .891.9 2.101 2 2.69s2 .674 2 .19c0-.484-.9-1.695-2-2.69-1.765-1.598-2-1.62-2-.19m142 14.226c0 1.324 2.9 3.435 3.464 2.522.326-.527-.321-1.446-1.436-2.043-1.115-.597-2.028-.812-2.028-.479m1 9.347c0 .486.788 1.145 1.75 1.464.962.318 2.875 1.36 4.25 2.313 2.241 1.555 2.196 1.404-.437-1.463-2.803-3.051-5.563-4.199-5.563-2.314m-130.877 10.02c-.758.48-3.062.647-5.121.37-3.825-.513-6.477 1.176-3.267 2.08 6.01 1.694 7.945 1.659 10.07-.184 3.281-2.846 1.986-4.59-1.682-2.266m-19.516 25.679c-.842 2.194-.781 2.418.652 2.418.693 0 1.822-.9 2.509-2 1.085-1.737.999-2-.653-2-1.045 0-2.174.712-2.508 1.582M396 218.992c-.825.53-2.175.758-3 .508-.825-.25-2.099-.078-2.831.382-.935.588-.403 1.021 1.796 1.461 3.289.658 12.035-1.195 12.035-2.55 0-1.116-6.19-.961-8 .199m-17.5 7.995c-2.2 1.07-4.562 1.96-5.25 1.979-.687.019-1.25.758-1.25 1.643 0 1.258.71 1.494 3.25 1.08 7.889-1.286 10.25-2.258 10.25-4.216 0-2.649-2.233-2.804-7-.486m-141.946 75.149c-2.17 2.125-3.512 3.864-2.982 3.864 1.458 0 8.428-4.943 8.428-5.977 0-2.172-1.771-1.485-5.446 2.113M321.5 301c-.34.55.057 1 .882 1s1.778-.45 2.118-1c.34-.55-.057-1-.882-1s-1.778.45-2.118 1m55.529 31.961c-.809.512-1.211 1.19-.893 1.508.788.788 3.864-.467 3.864-1.576 0-1.14-1.101-1.115-2.971.068m9.721 3.242c-2.062.547-3.75 1.401-3.75 1.896 0 1.215 1.73 1.146 2.5-.099.34-.55 1.604-1.007 2.809-1.015 1.205-.009 2.866-.452 3.691-.985 1.982-1.281.056-1.206-5.25.203m-164.22 8.749c-1.234 1.995.701 3.24 4.338 2.791 1.998-.247 4.629-.082 5.847.366 2.716.999 4.045-.643 1.563-1.931-2.972-1.542-11.033-2.383-11.748-1.226m-20.144.863c.376.609 2.356 1.375 4.399 1.701 2.043.326 4.496 1.019 5.451 1.539 3.076 1.674 4.111 1.006 1.555-1.005-1.363-1.072-3.336-1.909-4.385-1.86-1.048.049-3.211-.264-4.805-.696-2.031-.55-2.694-.454-2.215.321M365 410.417c0 .871.712 1.583 1.583 1.583 1.766 0 1.459-2.153-.395-2.771-.654-.218-1.188.317-1.188 1.188M263 435c0 2.466 1.97 4.667 2.014 2.25.007-.413.285-1.762.616-3 .444-1.654.175-2.25-1.013-2.25-1.13 0-1.617.904-1.617 3m-22 37.622c0 1.329.271 1.398 1.5.378.825-.685 1.5-1.415 1.5-1.622 0-.208-.675-.378-1.5-.378s-1.5.73-1.5 1.622m-1.449 6.029c-.365 1.458-1.764 3.515-3.108 4.572-2.285 1.798-3.368 4.827-1.693 4.736 2.236-.121 7.53-6.111 7.853-8.884.454-3.899-2.091-4.253-3.052-.424m6.811 29.849c-.769 2.003.365 4.787 1.631 4.004 1.325-.819 1.304-5.504-.024-5.504-.568 0-1.291.675-1.607 1.5m155.618 18.024c-1.586 1.911-1.339 2.137 3.27 2.998 2.504.468 3.75.331 3.75-.411 0-.611-.627-1.111-1.393-1.111s-1.652-.675-1.969-1.5c-.735-1.917-2.054-1.908-3.658.024M331.141 565.5c-.036 3.025.306 5.5.761 5.5.988 0 2.327-8.82 1.534-10.103-1.366-2.211-2.234-.469-2.295 4.603" fill-rule="evenodd"/>
<path fill="#f8eceb" stroke="#f8eceb" d="M290.25 164.496c-1.269 1.442-1.69 3.504-.715 3.504 1.416 0 5.381-3.327 4.897-4.109-.805-1.303-2.75-1.022-4.182.605m-16.315 2.29c-.783 1.768-1.933 3.214-2.557 3.214-.623 0-1.693.675-2.378 1.5s-2.035 1.5-3 1.5c-.966 0-2.429 1.012-3.251 2.25-1.236 1.86-2.372 2.238-6.552 2.178-4.21-.059-5.143.256-5.568 1.883-.371 1.418-1.091 1.801-2.631 1.399-1.322-.346-2.326-.019-2.666.868-.3.782-1.8 1.422-3.332 1.422-1.618 0-3.04.663-3.393 1.582-.888 2.315-.819 2.417 1.643 2.433 1.238.009 1.8.346 1.25.75-2.005 1.474-1.437 4.35.724 3.664 1.43-.454 1.882-.247 1.561.716-.248.745-1.285 1.517-2.304 1.714-1.019.198-3.154 1.66-4.744 3.25-1.59 1.59-3.531 2.891-4.314 2.891-.783 0-1.423.45-1.423 1s-.675 1-1.5 1-1.5.45-1.5 1 .45 1 1 1c3.024 0 .232 7.974-3.25 9.281-.963.361-1.75 1.12-1.75 1.688 0 .567-.671 1.031-1.491 1.031-.961 0-.398 1.044 1.586 2.941 2.255 2.154 2.903 3.489 2.426 4.993-.505 1.59-.299 1.918.914 1.453 3.02-1.159 1.532 1.723-1.561 3.024-1.883.792-2.679 1.592-2 2.011 1.975 1.22 1.212 4.218-1.374 5.396-1.393.635-2.5 1.983-2.5 3.044 0 1.064-.883 2.136-2 2.428-3.743.979-1.164 5.449 2.646 4.586 1.625-.368 4.354 1.344 4.354 2.731 0 .766.45 1.393 1 1.393s1 .9 1 2c0 1.568.667 2 3.083 2 4.24 0 3.28 2.221-1.443 3.338-3.68.87-3.693 3.662-.018 3.662.758 0 1.378.878 1.378 1.95 0 1.073.611 2.31 1.359 2.75.747.44 1.917 2.519 2.6 4.62s1.872 4.062 2.642 4.357c.769.295 1.399 1.389 1.399 2.43 0 1.041.605 1.893 1.345 1.893s2.16.9 3.155 2c.995 1.1 2.303 2.007 2.905 2.015 2.586.036 4.011 1.779 2.723 3.331-2.084 2.511-5.18 12.002-4.226 12.956 1.21 1.21 4.449-.662 6.462-3.735 2.855-4.357 11.978-.984 14.625 5.407.69 1.664 1.637 3.026 2.107 3.026 2.969 0 5.214 12.29 2.704 14.8-.933.933-.643 1.2 1.308 1.2 1.964 0 2.889-.866 4.272-4 1.942-4.402 2.038-4.447 6.261-2.975 1.869.651 3.361 2.141 4.097 4.091 1.419 3.76 3.091 3.077 2.49-1.017-.903-6.15 12.961-9.472 17.517-4.198 1.614 1.868 2.246 2.156 2.25 1.023.006-1.795 4.046-5.924 5.796-5.924.64 0 1.9-1.125 2.801-2.5.901-1.375 2.099-2.5 2.663-2.5.563 0 1.603-.788 2.31-1.75 1.197-1.628 1.497-1.549 4.301 1.13 3.141 3 6.134 3.028 6.134.056 0-2.273 3.845-7.436 5.537-7.436 2.226 0 9.807-4.128 11.575-6.302 1.272-1.566 1.423-2.821.717-5.965-1.916-8.527 6.058-11.876 11.793-4.954 2.779 3.355 5.378 4.234 5.378 1.819 0-.771-1.687-2.279-3.75-3.351-2.062-1.072-3.793-2.579-3.847-3.348-.159-2.311-1.667-5.348-3.078-6.199-1.556-.939-1.785-3.7-.306-3.7.588 0 .753-1.058.392-2.5-.556-2.216-.303-2.512 2.231-2.606l2.858-.107-2.779-1.097c-1.954-.771-2.581-1.555-2.111-2.643.367-.851.76-3.923.872-6.827.225-5.831 4.656-13.445 8.164-14.029 4.215-.701 4.775-1.546 1.398-2.112-5.213-.873-11.604-11.119-8.728-13.995.691-.691.416-1.25-.858-1.738-2.587-.993-6.388-5.479-6.426-7.585-.036-1.983-2.965-5.748-4.504-5.788-.566-.015-2.745-1.623-4.842-3.573-5.572-5.178-5.185-11.898 1.016-17.661 2.991-2.78 4.757-3.728 6.131-3.292 2.247.713 3.709-1.803 1.858-3.197-1.566-1.179-7.691-1.523-7.691-.433 0 .468-1.684 2.534-3.743 4.593-3.639 3.639-8.246 4.46-10.207 1.82-1.376-1.853-8.144-3.397-9.598-2.19-1.157.96-1.452.907-1.452-.263 0-2.83-3.563-5.067-5.823-3.655-1.621 1.012-2.314 1.009-3.548-.015-.843-.7-2.417-.992-3.497-.649-1.08.343-2.253.155-2.607-.417-.354-.573-1.748-1.041-3.098-1.041-1.35 0-3.362-.562-4.471-1.25-1.644-1.019-2.177-.992-2.886.146-.574.922-1.496 1.123-2.719.591-1.018-.443-2.236-.717-2.706-.611-.471.107-1.419-.273-2.107-.845-.688-.571-2.613-.766-4.278-.433-2.664.533-3.138.268-3.964-2.211l-.939-2.815-1.422 3.214M248 173c0 .55.45 1 1 1s1-.45 1-1-.45-1-1-1-1 .45-1 1m-5.53 3.048c-.398.644-2.347.793-5.059.386-2.97-.445-4.411-.297-4.411.452 0 .613.93 1.114 2.066 1.114 1.136 0 2.94.468 4.009 1.04 1.905 1.02 6.811-1.321 6.894-3.29.047-1.136-2.76-.897-3.499.298M223 202c-.589 1.1-.695 2-.235 2 1.063 0 3.235-2.148 3.235-3.2 0-1.552-1.943-.775-3 1.2m173 17.331c-5.994.88-6.278 1.03-3.651 1.928 1.919.656 3.55.623 5-.101 1.183-.591 3.276-1.207 4.651-1.368 1.375-.161 2.05-.545 1.5-.853-.55-.308-3.925-.131-7.5.394m-17 8.169c-.685.825-2.288 1.5-3.563 1.5-3.101 0-4.066 1.767-1.202 2.198 3.686.555 10.845-1.939 11.539-4.019.583-1.749-5.287-1.471-6.774.321M213 246c0 .55.702 1 1.559 1s1.281-.45.941-1c-.34-.55-1.041-1-1.559-1s-.941.45-.941 1m26.431 54.319c-.339.883-1.433 1.864-2.431 2.181-.998.317-2.079 1.262-2.4 2.101-.429 1.116.209.959 2.377-.585 3.337-2.376 4.495-3.877 3.647-4.726-.317-.317-.854.146-1.193 1.029m8.075.675c-.999 1.103-1.351 2.006-.783 2.006 1.258 0 3.752-2.858 3.08-3.53-.265-.265-1.299.42-2.297 1.524M312.65 333c.823 1.65 1.94 3 2.482 3 .542 0 .633-.562.202-1.25-.431-.687-.655-2.038-.496-3 .193-1.176-.364-1.75-1.698-1.75-1.873 0-1.901.171-.49 3m62.418 54.904c-1.137 1.598-2.068 3.343-2.068 3.878 0 .535-.675 1.533-1.5 2.218s-1.464 1.977-1.421 2.872c.055 1.133.239 1.228.605.313.289-.723 1.604-1.724 2.921-2.225 1.317-.501 2.395-1.619 2.395-2.485 0-.866.687-2.902 1.526-4.525 1.964-3.798.237-3.83-2.458-.046m-69.445 9.521c-1.583 1.294-2.608 2.791-2.277 3.325 1.204 1.949 1.642 11.56.584 12.834-.587.708-2.387 1.577-3.999 1.931-1.612.354-2.931.959-2.931 1.345s-1.35 1.211-3 1.834-3 1.869-3 2.769c0 1.224-.414 1.405-1.642.717-2.43-1.36-5.203-.275-5.552 2.172-.194 1.362-1.149 2.267-2.61 2.475-1.334.189-2.691 1.346-3.225 2.75-.507 1.332-1.538 2.423-2.291 2.423-.754 0-2.168.882-3.144 1.96-.976 1.078-2.272 1.866-2.881 1.75-.609-.115-1.269.855-1.466 2.156-.197 1.301-1.22 2.591-2.274 2.866-1.053.276-1.915.899-1.915 1.385 0 .485-.623.883-1.385.883s-2.148 1.165-3.081 2.588c-1.31 2-2.241 2.451-4.095 1.986-2.216-.556-2.327-.41-1.445 1.911.953 2.506.386 8.115-1.011 10.015-.405.55-.416 1.88-.024 2.956 1.085 2.982-1.11 7.564-4.459 9.306-1.679.873-2.45 1.746-1.75 1.983 1.48.499 1.7 4.255.25 4.255-.55 0-1 1.025-1 2.277 0 1.253-.641 3.194-1.425 4.313-1.729 2.469-.422 5.657 1.522 3.713.908-.908 1.604-.675 3.009 1.008 1.005 1.204 1.842 1.627 1.861.939.018-.687.45-1.25.961-1.25.811 0 .721 4.501-.261 13.042-.161 1.399-.628 3.086-1.039 3.75-.41.665-.382 1.26.063 1.323.445.064 1.289.176 1.876.25 3.72.47 5.611 5.806 4.138 11.676-.606 2.412-.476 2.49 3.507 2.11 3.15-.3 4.453.038 5.462 1.418 1.239 1.694 1.326 1.698 1.326.063 0-.962.461-1.465 1.024-1.117 1.092.675.912 4.21-.314 6.164-.473.753.077 1.294 1.525 1.5 1.777.252 2.266.967 2.269 3.321.002 1.65.435 3.675.963 4.499.528.825.829 2.738.671 4.25-.334 3.181 1.078 3.535 3.688.925 2.715-2.715 4.625-3.164 8.687-2.043 3.114.86 3.864.739 5.007-.81 1.101-1.49 1.583-1.586 2.654-.529.914.902.981 1.505.222 2-.599.389-1.397 1.969-1.774 3.51-.624 2.547-.509 2.708 1.262 1.76 1.975-1.057 8.909-.211 14.116 1.723 1.375.51 3.078.725 3.784.477s1.903.063 2.661.692c.945.785 1.58.814 2.025.095.356-.577 1.945-1.049 3.53-1.049 1.585 0 3.16-.45 3.5-1 1.279-2.069 4.28-1.012 4.97 1.75.377 1.513 1.273 3.425 1.99 4.25.717.825 1.612 2.513 1.989 3.75 1.62 5.315 5.297.924 4.036-4.819-.979-4.458 2.828-7.996 8.669-8.055 12.789-.13 18.429 1.719 20.744 6.8 1.096 2.405 1.351 2.504 2.775 1.08 1.423-1.424 1.419-1.866-.053-4.816-2.205-4.42-2.051-5.611.981-7.598 2.165-1.418 3.118-1.509 5.684-.541 4.102 1.549 4.7.668 1.539-2.263-2.43-2.253-2.518-2.664-1.512-7.059 1.174-5.131 6.233-10.093 9.436-9.255 1.588.415 1.748-.512 1.705-9.929-.05-11.041.265-11.821 4.886-12.11 4.39-.274 4.77-.989 2.639-4.965-2.578-4.81-2.533-5.622.83-15.22 1.82-5.192-.31-9.813-5.53-11.999-6.617-2.771-1.866-10.894 6.413-10.965 2.305-.02 4.45-.455 4.766-.967 1.059-1.713-1.46-2.223-5.082-1.028-2.768.914-4.095.912-5.815-.009-1.226-.656-3.766-1.269-5.645-1.362-2.545-.127-3.347-.585-3.149-1.799.16-.978-.632-1.864-1.983-2.217-1.782-.466-1.993-.844-1.016-1.821.678-.678 1.233-1.914 1.233-2.747 0-1.29-.247-1.267-1.67.156-4.254 4.254-16.962-15.676-12.875-20.192 2.822-3.118 2.011-5.837-.919-3.084-4.093 3.845-17.292 1.04-15.917-3.383.619-1.994.564-2.009-1.289-.356-2.145 1.913-8.958 2.183-11.163.442-1.951-1.54-5.173-1.548-8.099-.021-5.219 2.723-14.068.707-14.068-3.205 0-.794-.788-1.446-1.75-1.449-2.809-.01-3.094-11.472-.322-12.955 1.18-.632 1.764-1.677 1.428-2.554-.793-2.065-2.377-1.805-5.733.94m63.412 8.509c-.569 1.064-1.035 2.778-1.035 3.809 0 1.031-.661 2.748-1.468 3.816-1.761 2.327-1.91 3.441-.461 3.441 2.188 0 6.929-7.582 6.929-11.081 0-2.489-2.63-2.478-3.965.015m-105.396 26.76c-.966.966-.766 5.306.244 5.306 1.109 0 2.107-4.888 1.122-5.497-.399-.247-1.014-.161-1.366.191M241.5 472c-.34.55-.141 1 .441 1s1.059-.45 1.059-1-.198-1-.441-1-.719.45-1.059 1m-.833 4.667c-.367.366-.667 1.346-.667 2.177s-1.463 2.737-3.25 4.236c-4.182 3.507-3.089 4.689 1.58 1.709 2.884-1.842 3.594-2.924 3.628-5.539.043-3.348-.147-3.728-1.291-2.583m5.951 31.141c-.399.647-.314 1.913.189 2.812 1.18 2.108 2.161.482 1.24-2.054-.477-1.314-.935-1.557-1.429-.758m156.049 18.859c-.903.902-.846 2.371.083 2.174.413-.087 1.523.18 2.467.595.944.414 2.294.515 3 .226.808-.332.45-.781-.967-1.211-1.238-.376-2.25-1.082-2.25-1.568 0-1.04-1.381-1.168-2.333-.216m-129.124 19.264c-.683 1.105.894 2.299 1.818 1.375.95-.951.773-2.306-.302-2.306-.518 0-1.2.419-1.516.931m64.329 8.319c-.611 1.198-.414 4.75.265 4.75.474 0 .863-1.125.863-2.5 0-2.071-.604-3.276-1.128-2.25m-6.434 10.667c.034 2.155.399 4.255.812 4.667.413.412.75-1.351.75-3.917 0-2.567-.366-4.667-.812-4.667-.447 0-.785 1.763-.75 3.917" fill-rule="evenodd"/>
<path fill="#748394" stroke="#748394" d="M290.634 164.852c-2.332 2.577-2.021 3.282.866 1.966 2.577-1.174 3.146-2.301 1.634-3.235-.477-.295-1.602.276-2.5 1.269m-16.184 1.505c-.578.629-1.352 1.93-1.719 2.893-.368.963-1.357 1.75-2.2 1.75-.842 0-1.531.45-1.531 1s-.874 1-1.943 1-2.584.914-3.366 2.031c-1.727 2.466-7.664 4.396-9.101 2.959-1.654-1.654-3.59-1.11-3.59 1.01 0 1.454-.667 2-2.441 2-1.343 0-2.698.415-3.011.923-.314.508-1.916 1.219-3.559 1.58-3.034.666-4.239 3.497-1.489 3.497 1.787 0 1.85.478.414 3.16-.97 1.814-.852 1.955 1.118 1.33 2.963-.941 2.172 1.577-.996 3.17-1.268.637-2.583 1.571-2.921 2.074-.338.503-2.527 1.977-4.865 3.275-4.228 2.347-5.149 3.522-3.26 4.158 1.55.522-.846 7.845-2.802 8.563-.929.34-2.048 1.216-2.488 1.945-.44.729-1.565 1.354-2.5 1.388-1.305.049-1.205.264.433.925 1.173.473 2.745 2.245 3.494 3.936.749 1.692 1.701 3.076 2.117 3.076.416 0 .756.9.756 2 0 1.111-.667 2-1.5 2-.825 0-1.5.498-1.5 1.107 0 .641-.736.827-1.75.441-1.403-.534-1.502-.417-.5.593 1.908 1.922 1.496 4.982-.75 5.569-1.1.288-2 1.241-2 2.119 0 .878-1.238 2.585-2.75 3.794-3.131 2.502-2.85 3.23 1.44 3.729 4.064.473 4.787 1.026 6.749 5.162.926 1.95 2.218 3.479 2.872 3.397 4.916-.613 5.088 2.604.189 3.523-3.456.648-4.932 2.566-1.975 2.566.838 0 1.991 1.012 2.56 2.25.57 1.238 2.331 4.5 3.915 7.25s3.345 6.012 3.915 7.25c.569 1.238 1.652 2.25 2.405 2.25.754 0 2.185.9 3.18 2 .995 1.1 2.389 2 3.096 2 2.24 0 2.677 2.066 1.126 5.335-3.214 6.778-4.569 10.485-4.03 11.023 1.014 1.014 6.152-2.29 6.816-4.383 1.485-4.679 12.438-.386 14.51 5.687.593 1.738 1.718 3.406 2.499 3.706 1.935.743 4.704 7.613 4.183 10.382-.232 1.238-.105 2.25.284 2.25 1.194 0 4.378-3.974 4.636-5.787.953-6.691 2.091-7.406 12.285-7.719 8.84-.272 10.4-.785 12.599-4.14 2.061-3.146 3.545-2.644 5.042 1.706 1.068 3.104 1.514 3.413 4.569 3.167 4.09-.329 9.885-2.908 9.885-4.399 0-.661 1.145-.849 2.961-.486 1.629.326 3.23.157 3.559-.375 1.005-1.626 2.143-1.078 2.059.992-.1 2.475 1.8 2.762 2.274.344.659-3.362 8.826-9.303 12.788-9.303 3.826 0 6.952-8.182 4.394-11.5-1.269-1.646 2.424-7.043 4.575-6.686 1.039.172 2.634.316 3.543.319.908.003 3.057 1.55 4.774 3.436 3.091 3.397 5.073 4.352 5.073 2.444 0-.544-1.8-2.124-4-3.513-2.248-1.419-4-3.313-4-4.324 0-.989-.9-2.765-2-3.946-2.22-2.382-2.655-5.23-.8-5.23.887 0 .907-.293.078-1.122-1.614-1.614-.426-3.867 2.079-3.941 2.07-.062 2.064-.096-.187-.998-2.023-.811-2.232-1.362-1.585-4.186.409-1.789.663-4.488.564-5.998-.386-5.882 4.988-13.755 9.39-13.755 1.354 0 2.461-.45 2.461-1s-1.047-1-2.326-1c-2.401 0-6.674-3.722-6.674-5.814 0-.653-.399-1.186-.887-1.186-1.364 0-2.015-6.397-.736-7.235.722-.472.541-.74-.508-.75-1.947-.018-6.869-6.168-6.869-8.581 0-1.677-3.539-5.434-5.119-5.434-.447 0-2.562-1.608-4.7-3.573-3.693-3.396-3.848-3.779-3.123-7.741.419-2.293.56-4.495.313-4.895-.902-1.459 8.752-9.934 10.07-8.84 1.357 1.126 2.559.419 2.559-1.504 0-.671-1.462-1.44-3.25-1.708-2.888-.433-3.771.077-7.924 4.573l-4.674 5.06-4.326-1.794c-2.379-.986-5.533-2.427-7.007-3.202-1.741-.914-2.901-1.052-3.309-.392-1.03 1.667-2.119 1.169-3.349-1.529-1.032-2.265-1.558-2.471-4.77-1.869-2.578.484-3.856.283-4.47-.704-.688-1.105-1.25-1.14-2.805-.177-1.564.969-2.182.92-3.153-.25-.664-.8-2.503-1.455-4.085-1.455-1.583 0-2.878-.45-2.878-1 0-1.63-2.733-1.138-3.405.613-.46 1.199-.953 1.335-1.923.53-.717-.595-3.901-1.387-7.075-1.761-4.152-.488-5.957-1.167-6.434-2.423-.489-1.286-.939-1.444-1.713-.602m-32.439 10.137c-1.367.732-2.934 1.054-3.481.716-1.44-.89-4.542-1-5.049-.179-.957 1.548 8.894 2.022 10.415.502 2.075-2.076 1.079-2.625-1.885-1.039m-18.552 25.573c-1.076 1.741.149 2.11 1.521.457.789-.95.865-1.524.201-1.524-.584 0-1.36.48-1.722 1.067M394 219.896c-2.24.624-2.305.771-.623 1.417 1.032.397 2.382.307 3-.2.618-.507 2.248-1.128 3.623-1.381 2.204-.405 2.145-.464-.5-.496-1.65-.02-4.125.277-5.5.66m-14.559 7.572c-1.067.808-2.927 1.483-4.132 1.5-1.205.018-2.51.549-2.901 1.181-.52.842.712.96 4.614.442 5.996-.795 9.32-2.228 8.447-3.641-.869-1.407-3.819-1.153-6.028.518M213.5 246c-.34.55-.141 1 .441 1s1.059-.45 1.059-1-.198-1-.441-1-.719.45-1.059 1m117 30c.364 1.147.18 2-.433 2-1.622 0-1.274 2.707.433 3.362 1.178.452 1.5-.277 1.5-3.393 0-2.183-.48-3.969-1.067-3.969-.613 0-.797.853-.433 2m-93 26.248-3 3.033 3.25-2.208c1.787-1.215 3.25-2.629 3.25-3.141 0-1.219-.007-1.215-3.5 2.316m10.084-.607c-.527 1.373-.38 1.435.893.378 1.735-1.44 1.916-2.019.63-2.019-.491 0-1.176.739-1.523 1.641m127.59 86.673c-1.196 1.273-2.174 3.025-2.174 3.893 0 .869-.675 1.838-1.5 2.155-.825.316-1.5 1.065-1.5 1.663 0 2.226 4.308-1.996 6.083-5.961 2.11-4.713 2.027-4.874-.909-1.75m-68.879 9.049c-1.975 2.083-2.145 3.045-1.634 9.231l.571 6.906-6.366 2.963c-6.558 3.052-8.123 4.313-7.202 5.803.293.474-1.079.559-3.049.19-3.228-.606-3.681-.413-4.581 1.954-.549 1.444-2.131 3.057-3.516 3.583-1.385.527-2.518 1.644-2.518 2.482 0 .839-.8 1.525-1.778 1.525s-2.548.9-3.49 2c-.942 1.1-2.422 2-3.29 2-1.097 0-1.392.581-.97 1.91.482 1.519-.324 2.375-3.933 4.178-2.496 1.246-4.539 2.551-4.539 2.898 0 2.457-2.778 4.203-4.89 3.073-2.198-1.176-2.209-1.151-.744 1.682.916 1.772 1.157 3.413.627 4.27-.474.767-.627 1.772-.341 2.235.286.463-.008 1.478-.654 2.257-.659.793-.912 2.642-.576 4.206.695 3.245-2.498 9.291-4.907 9.291-1.841 0-1.948 1.161-.265 2.867 1.002 1.016.878 1.543-.625 2.652-1.032.762-1.628 2.03-1.326 2.818.303.788-.131 2.406-.964 3.595-1.767 2.523-1.002 6.135.898 4.235 1.287-1.287 3.151-1.607 2.431-.417-.25.413.174 1.33.941 2.039 1.148 1.061 1.395 1.017 1.395-.25 0-.846.45-1.539 1-1.539 1.01 0 1.467 1.662.962 3.5-.151.55-.387 2.35-.524 4-.138 1.65-.486 5.111-.775 7.692-.391 3.493-.207 4.57.719 4.215 2.42-.929 5.022 3.458 5.071 8.549.046 4.756.105 4.846 3.047 4.656 1.65-.106 3.788.457 4.75 1.252 1.332 1.101 1.75 1.141 1.75.169 0-.981.325-1.008 1.397-.119 1.506 1.25 1.014 5.089-.809 6.321-.599.404.15.741 1.662.75 2.75.015 3.12.631 2.802 4.669-.094 1.185.277 2.431.823 2.769.546.337.739 2.18.428 4.095-.639 3.94.638 4.541 3.523 1.656 2.724-2.724 4.627-3.164 8.759-2.023 3.097.855 3.886.76 4.624-.56.49-.875 1.543-1.591 2.341-1.591 1.574 0 1.998 2.543.571 3.425-.484.299-1.127 1.492-1.43 2.65-.47 1.796-.209 2.021 1.766 1.525 1.275-.32 4.281-.18 6.68.31l9.655 1.973c3.028.619 6.023.718 7 .233 6.546-3.25 11.243-3.143 11.191.256-.032 2.069 4.501 10.55 5.659 10.589 1.644.056 2.521-4.402 1.43-7.272-1.434-3.771 3.33-7.928 9.11-7.949 12.947-.048 17.745 1.448 20.811 6.489l1.886 3.101.642-2.557c.389-1.551.018-3.764-.943-5.623-2.636-5.097 2.42-8.622 8.857-6.175 3.009 1.144 3.552-.376.683-1.912-3.379-1.808-3.366-5.522.043-12.644 1.296-2.708 6.222-5.593 8.232-4.822 1.342.515 1.423.173.551-2.328-.643-1.845-.682-3.83-.105-5.351.505-1.33.696-4.722.425-7.538-.553-5.733-.047-6.374 5.187-6.571 3.919-.147 4.858-2.478 1.964-4.88-1.861-1.544-1.218-11.203.982-14.763 2.737-4.428.418-9.761-4.871-11.205-1.134-.309-2.365-1.903-2.893-3.743-1.339-4.672 2.168-7.978 8.918-8.405 2.722-.172 4.818-.763 4.658-1.313-.16-.55-1.285-.848-2.5-.661-3.734.572-9.038.529-12.709-.102-1.925-.331-3.837-.632-4.25-.67-.413-.037-.75-.994-.75-2.126s-.453-1.779-1.007-1.437c-1.56.964-2.369-2.345-.982-4.017.783-.943.845-1.487.17-1.487-.584 0-1.351.466-1.703 1.036-.691 1.118-9.532-7.191-11.211-10.536-2.054-4.093-2.449-9.46-.816-11.093 1.705-1.706 2.041-3.407.671-3.407-.482 0-1.453.694-2.157 1.542-2.751 3.315-16.927.406-15.547-3.19.647-1.685-.613-1.757-2.241-.129-1.394 1.394-8.053 1.104-9.918-.431-.682-.562-2.707-.728-4.5-.369-13.452 2.694-12.993 2.722-16.365-.997-1.708-1.884-3.528-3.426-4.044-3.426-.516 0-1.047-2.925-1.179-6.5-.199-5.404.031-6.5 1.368-6.5.963 0 1.478-.668 1.284-1.667-.494-2.548-2.094-2.537-4.528.03m62.811 8.887c-3.165 8.371-3.695 11.484-1.671 9.804 2.207-1.832 5.738-9.16 5.151-10.69-.795-2.073-2.528-1.632-3.48.886M263 435c0 1.1.45 2 1 2s1-.9 1-2-.45-2-1-2-1 .9-1 2m-22.25 41.571c-.412.419-.75 1.667-.75 2.773s-1.463 3.262-3.25 4.793c-1.787 1.53-2.8 2.788-2.25 2.795 2.715.038 7.666-5.579 7.336-8.323-.185-1.54-.674-2.458-1.086-2.038m5.941 32.12c-.307.497-.195 1.494.25 2.214.445.719 1.061.901 1.368.404.307-.497.195-1.494-.25-2.214-.445-.719-1.061-.901-1.368-.404M402.5 527c-.34.55.084 1 .941 1s1.559-.45 1.559-1-.423-1-.941-1-1.219.45-1.559 1M274 546.559c0 .857.457 1.276 1.016.931.559-.346.758-1.047.441-1.559-.857-1.387-1.457-1.129-1.457.628M337.71 557c.288 1.1.696 2 .907 2 .21 0 .383-.9.383-2s-.408-2-.906-2c-.499 0-.671.9-.384 2m-5.881 8c.209 2.2.559 4 .776 4 .217 0 .395-1.8.395-4s-.349-4-.776-4c-.427 0-.605 1.8-.395 4" fill-rule="evenodd"/>
<path fill="#fbfbfb" stroke="#fbfbfb" d="M290.441 165.468c-1.067.808-1.465 1.483-.882 1.5.582.018 1.932-.629 3-1.436 1.067-.808 1.465-1.483.882-1.5-.582-.018-1.932.629-3 1.436m-16.252 2.063c-1.147 2.756-5.003 5.469-7.773 5.469-.652 0-1.887 1.07-2.744 2.378-1.723 2.63-8.06 4.375-10.009 2.757-.835-.693-1.513-.293-2.288 1.349-1.009 2.138-.901 2.298 1.285 1.901 1.619-.293 2.628.138 3.138 1.341 2.93 6.925 8.202 11.922 8.202 7.774 0-.95.956-1.5 2.607-1.5 1.906 0 2.452-.403 2.031-1.5-.889-2.317.142-1.81 4.065 2 1.982 1.925 3.985 3.5 4.45 3.5.466 0 .847.567.847 1.259 0 1.694 4.091 4.195 4.884 2.987 1.876-2.857 6.13-2.268 9.626 1.332l3.512 3.616 1.956-2.347c1.075-1.291 1.97-2.685 1.989-3.097.018-.412.981-.75 2.14-.75 1.462 0 1.931-.459 1.531-1.5-.316-.825-.107-1.5.465-1.5 1.359 0 3.897 2.559 3.897 3.929 0 1.601 1.701 1.292 2.362-.429.827-2.156 3.282-1.847 5.018.631.822 1.174 2.129 1.888 2.909 1.588.779-.299 2.154.317 3.054 1.369.901 1.052 2.317 1.912 3.147 1.912.831 0 1.51.45 1.51 1s.675 1 1.5 1c1.88 0 1.954-1.637.122-2.7-2.984-1.731-2.952-6.913.059-9.705 1.539-1.427 3.197-2.595 3.684-2.595.487 0 .615-1.35.285-3-.45-2.249-.231-3 .875-3 .811 0 1.485.563 1.497 1.25.012.688.902 2.375 1.978 3.75 2.105 2.692 2.039 2.78 2.398-3.194.186-3.088 7.817-9.969 10.35-9.333 1.625.408 2.252.125 2.252-1.017 0-.949-.7-1.467-1.75-1.294-.962.159-2.325-.073-3.028-.514-.855-.536-2.791.881-5.843 4.275-4.371 4.862-6.872 6.05-8.929 4.242-1.948-1.712-10.213-4.193-11.861-3.561-1.204.462-1.867.048-2.247-1.405-.695-2.658-2.916-3.482-5.326-1.977-1.542.963-2.26.867-3.774-.503-1.421-1.286-2.148-1.413-3.032-.529-.884.884-1.633.737-3.123-.612-1.079-.975-2.406-1.499-2.949-1.163-.543.336-2.179.068-3.635-.595-2.167-.988-2.809-.945-3.544.237-.776 1.247-1.207 1.251-3.177.029-1.254-.778-4.512-1.46-7.24-1.517-4.402-.091-5.025-.378-5.539-2.555l-.579-2.453-1.235 2.97m-38.376 10.152c.721.289 1.584.253 1.916-.079.332-.332-.258-.568-1.312-.525-1.165.048-1.402.285-.604.604m11.168 3.977c.567.281.796.891.509 1.356-.287.465-.022 1.155.59 1.533.692.428.982.014.766-1.098-.19-.982-.92-1.901-1.621-2.043-.701-.142-.811-.028-.244.252m4.019 5.718c0 .757.644 1.912 1.431 2.565s1.396 2.444 1.352 3.978c-.086 3.024.814 5.079 2.223 5.079 1.764 0 .705-8.451-1.347-10.75-2.284-2.559-3.659-2.887-3.659-.872m88 9c0 .207.788.995 1.75 1.75 1.586 1.243 1.621 1.208.378-.378-1.307-1.666-2.128-2.195-2.128-1.372m-59 5.087c0 .844.188 1.535.418 1.535.23 0 1.13.273 2 .607 2.299.882 1.942-1.344-.418-2.607-1.596-.854-2-.76-2 .465m117.75 18.197c.688.278 1.813.278 2.5 0 .688-.277.125-.504-1.25-.504s-1.937.227-1.25.504m-38.671 4.921c.048 1.165.285 1.402.604.605.289-.722.253-1.585-.079-1.917-.332-.332-.568.258-.525 1.312m-142.005 17.828c-1.199 1.444.355 3.493 1.659 2.189.33-.33-.037-.614-.816-.632-.996-.022-.841-.467.524-1.5 1.068-.807 1.46-1.468.873-1.468-.588 0-1.596.635-2.24 1.411m139.121 2.089c.02 1.65.244 2.204.498 1.231.254-.973.237-2.323-.037-3-.274-.677-.481.119-.461 1.769M227 251.941c0 .518.445 1.216.989 1.552.566.35.734-.051.393-.941-.665-1.732-1.382-2.049-1.382-.611m129.75 4.721c.688.278 1.813.278 2.5 0 .688-.277.125-.504-1.25-.504s-1.937.227-1.25.504m-32.83 42.443c1.33.526 2.769.605 3.196.175.428-.429-.661-.859-2.419-.955-3.001-.165-3.049-.117-.777.78m6.275 1.395c.02 1.65.244 2.204.498 1.231.254-.973.237-2.323-.037-3-.274-.677-.481.119-.461 1.769m-11.382.183c.721.289 1.584.253 1.916-.079.332-.332-.258-.568-1.312-.525-1.165.048-1.402.285-.604.604M293 302l-4.5.7 4.191.15c2.305.082 4.469-.3 4.809-.85.34-.55.479-.932.309-.85-.17.083-2.334.465-4.809.85m22 0c-.901.582-1.025.975-.309.985.655.008 1.469-.435 1.809-.985.767-1.242.421-1.242-1.5 0m-39.376 6.539c-.343.893-.578 2.6-.522 3.793.065 1.37.405.883.924-1.325.873-3.717.636-5.174-.402-2.468M272.158 314c0 1.375.227 1.938.504 1.25.278-.687.278-1.812 0-2.5-.277-.687-.504-.125-.504 1.25m102.91 74.904c-1.137 1.598-2.068 3.398-2.068 4 0 .603-.402 1.096-.893 1.096s-1.153.676-1.47 1.503c-.491 1.281-.21 1.264 1.893-.115 1.359-.89 2.47-2.257 2.47-3.038 0-.781.727-2.53 1.615-3.885 2.265-3.457.965-3.088-1.547.439m-68.436 8.561c-2.473 2.292-2.574 2.755-1.816 8.301 1.057 7.727.277 9.16-5.816 10.692-2.521.634-7 3.906-7 5.113 0 1.196-.748 1.379-3.512.861-3.266-.613-3.589-.441-4.598 2.454-.669 1.917-1.772 3.114-2.871 3.114-.982 0-2.021.9-2.309 2-.287 1.1-1.357 2-2.376 2s-2.415.9-3.102 2c-.687 1.1-1.92 2-2.74 2-.831 0-1.492.897-1.492 2.025 0 1.213-.956 2.388-2.386 2.931-1.312.499-3.997 2.567-5.967 4.595-2.363 2.434-4.131 3.477-5.198 3.068-1.046-.401-1.454-.179-1.158.63.253.688.889 1.164 1.415 1.057 1.01-.204-.576 7.191-2.027 9.453-.445.692-.547 2.082-.227 3.089.917 2.889-2.139 9.152-4.465 9.152-1.093 0-1.987.45-1.987 1s.45 1 1 1c1.405 0 1.253 3.749-.171 4.224-1.058.352-1.537 1.955-2.077 6.953-.099.922-.534 1.458-.966 1.191-.956-.591-1.052 1.032-.117 1.968.368.367 1.569-.12 2.669-1.084 1.564-1.369 1.882-1.423 1.457-.247-.299.828.074 2.083.83 2.79 1.127 1.053 1.375 1.007 1.375-.256 0-.846.464-1.539 1.031-1.539 1.595 0 2.369 3 1.102 4.267-1.3 1.3-1.542 3.104-.314 2.345.846-.523.467 4.733-.532 7.388-1.053 2.796-.964 5.09.179 4.651 1.787-.685 5.196 3.523 5.708 7.046.255 1.759.143 2.999-.249 2.757-.392-.243-.649.587-.57 1.843.117 1.887.66 2.247 3.124 2.077 1.641-.114 3.441.076 4.001.422.56.346 1.918.646 3.019.667 2.264.042 2.92 3.999 1.074 6.479-.817 1.098-.764 1.256.221.664 2.157-1.297 4.369 1.374 3.692 4.458-.348 1.585-.131 3.037.514 3.436.666.412.86 1.863.479 3.595-.774 3.526 1.179 3.954 3.843.842 1.789-2.089 5.846-2.291 9.93-.493 1.242.547 2.313.085 3.676-1.586 2.667-3.27 3.86-.283 1.619 4.052-1.355 2.62-1.379 3.09-.156 3.09.793 0 1.631-.562 1.862-1.25.33-.983.969-.958 2.988.118 1.413.752 3.013 1.093 3.557.757.544-.337 2.633.075 4.643.915 2.009.839 4.194 1.44 4.856 1.335.662-.105 2.076.186 3.143.647 1.265.546 2.077.427 2.333-.342.217-.649 1.511-1.18 2.876-1.18s3.32-.448 4.344-.996c2.814-1.506 4.739-.248 5.454 3.565.354 1.887 1.029 3.431 1.5 3.431.472 0 1.328 1.35 1.903 3 1.274 3.654 1.913 3.754 3.152.496.64-1.684.577-3.325-.191-5.012-1.913-4.198 6.022-9.94 11.689-8.459.55.143 2.577.362 4.505.485 6.262.399 9.7 1.547 12.015 4.011 1.249 1.33 2.65 2.183 3.114 1.896.464-.286.547.251.185 1.195-.447 1.164-.283 1.484.511.993.644-.398 1.156-1.484 1.138-2.414-.038-2.033-2.427-5.398-3.249-4.577-.321.321-.338-.356-.038-1.504.755-2.884 7.086-6.743 8.592-5.237.62.62 2.049 1.097 3.177 1.059 1.967-.065 1.96-.111-.178-1.143-2.356-1.137-3.43-3.305-2.867-5.789.187-.825.682-2.979 1.1-4.786.418-1.807 1.597-3.872 2.621-4.59 1.024-.717 1.527-1.673 1.118-2.124-.409-.451-.213-.516.437-.144.649.372 1.463.219 1.809-.34.345-.559 1.439-1.016 2.43-1.016 1.377 0 1.691-.582 1.331-2.465-.259-1.356.002-3.821.579-5.478.578-1.657.707-3.225.286-3.485-.42-.26-.505-2.407-.19-4.772.485-3.636.96-4.353 3.074-4.646 1.375-.19 3.149-.865 3.942-1.5 1.159-.928 1.277-.86.603.346-.675 1.207-.58 1.261.485.274 1.094-1.015 1.056-1.534-.219-3-2.132-2.452-2.995-6.711-1.92-9.467 4.173-10.69 3.847-14.754-1.38-17.235-1.931-.916-3.511-2.121-3.511-2.678 0-.557-.369-.784-.819-.506-1.94 1.199.324-5.952 2.532-7.998l2.434-2.255-3.648-1.008c-2.007-.554-4.286-.762-5.065-.463-.814.312-1.712-.246-2.11-1.31-.381-1.02-1.538-2.462-2.572-3.205-1.816-1.306-1.818-1.419-.065-3.392 1.779-2.002 1.772-2.015-.382-.693-1.974 1.213-2.446 1.076-4.702-1.358-1.379-1.488-2.243-2.706-1.92-2.706.323 0-.608-.94-2.068-2.088-4.964-3.905-7.383-13.199-4.137-15.894 2.375-1.971 1.786-3.419-.728-1.791-3.03 1.962-7.569 3.005-9.046 2.08-.662-.415-1.654-.814-2.204-.887-3.423-.454-5.5-1.871-5.5-3.751 0-1.926-.132-1.966-1.605-.493-1.649 1.65-8.697 1.489-10.921-.248-.564-.44-2.139-.612-3.5-.381-14.218 2.416-13.911 2.416-16.51.007-1.355-1.256-2.464-2.794-2.464-3.419 0-.624-.675-1.135-1.5-1.135-1.179 0-1.5-1.389-1.5-6.5s.321-6.5 1.5-6.5c.825 0 1.5-.648 1.5-1.441 0-2.548-1.68-2.585-4.368-.094m63.059 8.566c-.847 1.209-1.309 2.801-1.026 3.537.282.737-.202 2.36-1.076 3.608-2.191 3.128-1.991 4.148.411 2.092 1.1-.942 2-2.303 2-3.025 0-.723.742-2.446 1.649-3.83 2.194-3.349.318-5.632-1.958-2.382m25.768 47.036c-.363.586-.409 1.317-.102 1.623.822.823 3.643-.461 3.643-1.659 0-1.357-2.697-1.33-3.541.036m-3.646 1.616c.721.289 1.584.253 1.916-.079.332-.332-.258-.568-1.312-.525-1.165.048-1.402.285-.604.604m-151.146 22.984c-.367.366-.667 1.362-.667 2.212 0 .85-1.238 2.535-2.75 3.744s-2.525 2.425-2.25 2.702c1.008 1.017 6.3-4.553 6.558-6.903.283-2.578.164-2.811-.891-1.755M247.158 510c0 1.375.227 1.938.504 1.25.278-.687.278-1.812 0-2.5-.277-.687-.504-.125-.504 1.25M402.5 527c-.34.55.11 1 1 1s1.34-.45 1-1c-.34-.55-.79-1-1-1-.21 0-.66.45-1 1m-70.745 36.5c.263 1.375.651 2.5.862 2.5.21 0 .383-1.125.383-2.5s-.388-2.5-.861-2.5c-.474 0-.647 1.125-.384 2.5" fill-rule="evenodd"/>
</svg>